<svg xmlns="http://www.w3.org/2000/svg" xmlns:xlink="http://www.w3.org/1999/xlink" version="1.1" data-diagram-type="DESCRIPTION" style="width:688px;height:381px;background:#FFFFFF;" width="688px" height="381px" viewBox="0 0 688 381" zoomAndPan="magnify" preserveAspectRatio="none" contentStyleType="text/css"><?plantuml 1.2026.7?><defs/><g font-family="sans-serif" lengthAdjust="spacing"><!--cluster Docker--><g class="cluster" data-qualified-name="Docker" id="ent0001" data-source-line="27"><path d="M65.408,182.229 C72.781,165.61 86.366,164.039 98.969,176.11 C110.528,157.464 129.999,153.961 141.443,176.229 C156.121,154.061 172.337,157.71 185.193,178.101 C192.381,160.561 208.918,159.382 219.03,175.129 C232.406,150.74 250.474,157.001 263.617,175.371 C276.174,159.164 290.856,160.153 302.783,176.138 C315.835,162.216 328.639,160.23 339.518,178.609 C350.416,159.032 368.413,151.053 384.121,173.505 C395.051,157.876 413.105,160.433 421.157,176.833 C433.027,159.119 448.702,157.188 462.707,174.285 C476.874,153.288 490.006,153.81 504.057,174.4 C518.68,155.676 533.151,160.412 542.411,179.798 C555.695,162.076 570.155,163.183 582.391,180.977 C594.823,162.661 615.621,160.34 626.591,182.57 C630.006,183.178 630.35,185.585 628.363,187.967 C666.308,201.86 670.613,232.798 636.131,255.075 C673.099,285.901 658.099,317.909 619.591,332.64 C623.983,332.462 627.213,335.032 624.74,339.794 C612.352,358.216 595.405,360.57 583.464,339.328 C572.137,359.445 554.355,355.62 543.404,338.919 C531.447,363.409 513.729,357.779 499.892,340.897 C489.23,357.138 469.425,360.528 460.159,339.412 C452.105,359.523 435.699,358.701 423.221,344.122 C410.451,361.829 393.969,363.466 381.26,344.053 C370.128,362.057 354.016,357.069 345.895,340.934 C332.579,362.205 315.788,361.625 300.916,342.674 C288.906,360.021 274.779,366.564 260.016,345.615 C245.881,365.904 229.9,363.903 219.722,341.85 C210.079,359.841 194.463,359.043 184.915,341.756 C171.042,362.407 153.919,364.323 140.321,341.475 C127.503,357.924 116.445,357.147 104.215,340.826 C80.232,364.277 61.277,351.735 51.591,325.64 C54.595,326.767 54.65,328.515 52.782,330.773 C18.095,312.109 13.532,288.338 43.693,261.202 C6,228.942 11.27,193.04 58.591,175.57 C64.062,174.157 66.582,176.838 65.408,182.229" style="stroke:#181818;stroke-width:1;" fill="none"/><text x="314.325" y="195.536" fill="#000" font-size="14" textLength="49.532" font-weight="700">Docker</text></g><!--cluster mwaeckerlin/hermes:gateway--><g class="cluster" data-qualified-name="Docker.mwaeckerlin.hermes.gateway" id="ent0002" data-source-line="28"><rect x="67.591" y="213.57" width="291" height="103.07" fill="none" style="stroke:#181818;stroke-width:1;" rx="2.5" ry="2.5"/><rect x="338.591" y="218.57" width="15" height="10" fill="none" style="stroke:#181818;stroke-width:1;"/><rect x="336.591" y="220.57" width="4" height="2" fill="none" style="stroke:#181818;stroke-width:1;"/><rect x="336.591" y="224.57" width="4" height="2" fill="none" style="stroke:#181818;stroke-width:1;"/><text x="106.412" y="241.536" fill="#000" font-size="14" textLength="213.359" font-weight="700">mwaeckerlin/hermes:gateway</text></g><!--cluster mwaeckerlin/hermes:sandbox--><g class="cluster" data-qualified-name="Docker.mwaeckerlin.hermes.sandbox" id="ent0006" data-source-line="31"><rect x="382.591" y="213.57" width="228" height="103.07" fill="none" style="stroke:#181818;stroke-width:1;" rx="2.5" ry="2.5"/><rect x="590.591" y="218.57" width="15" height="10" fill="none" style="stroke:#181818;stroke-width:1;"/><rect x="588.591" y="220.57" width="4" height="2" fill="none" style="stroke:#181818;stroke-width:1;"/><rect x="588.591" y="224.57" width="4" height="2" fill="none" style="stroke:#181818;stroke-width:1;"/><text x="390.402" y="241.536" fill="#000" font-size="14" textLength="212.379" font-weight="700">mwaeckerlin/hermes:sandbox</text></g><!--entity secrets--><g class="entity" data-qualified-name="Docker.mwaeckerlin.hermes.gateway.secrets" id="ent0003" data-source-line="29"><ellipse cx="119.595" cy="276.113" rx="36.064" ry="16.483" fill="#F1F1F1" style="stroke:#181818;stroke-width:0.5;"/><text x="96.215" y="282.147" fill="#000" font-size="14" textLength="46.76">secrets</text></g><!--entity Hermes Gateway--><g class="entity" data-qualified-name="Docker.mwaeckerlin.hermes.gateway.Hermes Gateway" id="ent0004" data-source-line="29"><rect x="190.401" y="251.57" width="152.378" height="49.068" fill="#F1F1F1" style="stroke:#181818;stroke-width:0.5;" rx="2.5" ry="2.5"/><rect x="322.779" y="256.57" width="15" height="10" fill="#F1F1F1" style="stroke:#181818;stroke-width:0.5;"/><rect x="320.779" y="258.57" width="4" height="2" fill="#F1F1F1" style="stroke:#181818;stroke-width:0.5;"/><rect x="320.779" y="262.57" width="4" height="2" fill="#F1F1F1" style="stroke:#181818;stroke-width:0.5;"/><text x="205.401" y="286.536" fill="#000" font-size="14" textLength="112.378">Hermes Gateway</text></g><!--entity Ubuntu SSH Sandbox--><g class="entity" data-qualified-name="Docker.mwaeckerlin.hermes.sandbox.Ubuntu SSH Sandbox" id="ent0007" data-source-line="32"><rect x="399.511" y="251.57" width="180.167" height="49.068" fill="#F1F1F1" style="stroke:#181818;stroke-width:0.5;" rx="2.5" ry="2.5"/><rect x="559.679" y="256.57" width="15" height="10" fill="#F1F1F1" style="stroke:#181818;stroke-width:0.5;"/><rect x="557.679" y="258.57" width="4" height="2" fill="#F1F1F1" style="stroke:#181818;stroke-width:0.5;"/><rect x="557.679" y="262.57" width="4" height="2" fill="#F1F1F1" style="stroke:#181818;stroke-width:0.5;"/><text x="414.511" y="286.536" fill="#000" font-size="14" textLength="140.167">Ubuntu SSH Sandbox</text></g><!--entity User--><g class="entity" data-qualified-name="User" id="ent0008" data-source-line="35"><ellipse cx="266.59" cy="14" rx="8" ry="8" fill="#F1F1F1" style="stroke:#181818;stroke-width:0.5;"/><path d="M266.59,22 L266.59,49 M253.59,30 L279.59,30 M266.59,49 L253.59,64 M266.59,49 L279.59,64" style="stroke:#181818;stroke-width:0.5;" fill="none"/><text x="251.281" y="80.466" fill="#000" font-size="14" textLength="30.618">User</text></g><!--entity Agent--><g class="entity" data-qualified-name="Agent" id="ent0011" data-source-line="37"><ellipse cx="489.59" cy="14" rx="8" ry="8" fill="#F1F1F1" style="stroke:#181818;stroke-width:0.5;"/><path d="M489.59,22 L489.59,49 M476.59,30 L502.59,30 M489.59,49 L476.59,64 M489.59,49 L502.59,64" style="stroke:#181818;stroke-width:0.5;" fill="none"/><text x="470.011" y="80.466" fill="#000" font-size="14" textLength="39.158">Agent</text></g><!--link secrets to Hermes Gateway--><g class="link" data-entity-1="ent0003" data-entity-2="ent0004" id="lnk5" data-source-line="29" data-link-type="association"><path d="M156.051,276.11 C167.421,276.11 178.791,276.11 190.161,276.11" style="stroke:#181818;stroke-width:1;stroke-dasharray:7,7;" fill="none" id="secrets-Hermes Gateway"/></g><!--link User to Hermes Gateway--><g class="link" data-entity-1="ent0008" data-entity-2="ent0004" id="lnk9" data-source-line="35" data-link-type="dependency"><path d="M266.591,84.9 C266.591,132.51 266.591,206.7 266.591,246.19" style="stroke:#181818;stroke-width:1;" fill="none" id="User-to-Hermes Gateway"/><polygon points="266.591,251.19,270.591,242.19,266.591,246.19,262.591,242.19,266.591,251.19" fill="#181818" style="stroke:#181818;stroke-width:1;stroke-linejoin:miter;stroke-miterlimit:10;"/><text x="267.591" y="138.467" fill="#000" font-size="13" textLength="58.435">API / chat</text></g><!--link Hermes Gateway to Ubuntu SSH Sandbox--><g class="link" data-entity-1="ent0004" data-entity-2="ent0007" id="lnk10" data-source-line="36" data-link-type="dependency"><path d="M343.021,276.11 C361.051,276.11 375.441,276.11 394.031,276.11" style="stroke:#181818;stroke-width:1;" fill="none" id="Hermes Gateway-to-Ubuntu SSH Sandbox"/><polygon points="399.031,276.11,390.031,272.11,394.031,276.11,390.031,280.11,399.031,276.11" fill="#181818" style="stroke:#181818;stroke-width:1;stroke-linejoin:miter;stroke-miterlimit:10;"/><text x="361.141" y="269.007" fill="#000" font-size="13" textLength="20.488">ssh</text></g><!--link Agent to Ubuntu SSH Sandbox--><g class="link" data-entity-1="ent0011" data-entity-2="ent0007" id="lnk12" data-source-line="37" data-link-type="dependency"><path d="M489.591,84.9 C489.591,132.51 489.591,206.7 489.591,246.19" style="stroke:#181818;stroke-width:1;" fill="none" id="Agent-to-Ubuntu SSH Sandbox"/><polygon points="489.591,251.19,493.591,242.19,489.591,246.19,485.591,242.19,489.591,251.19" fill="#181818" style="stroke:#181818;stroke-width:1;stroke-linejoin:miter;stroke-miterlimit:10;"/><text x="500.653" y="129.467" fill="#000" font-size="13" textLength="47.84">execute</text><text x="490.591" y="147.173" fill="#000" font-size="13" textLength="67.964">commands</text></g><?plantuml-src XOyn3u8m48Nt_eeN9XsGlOC9YOcucH0cT2Zb0aPf3Mq3nl3VBQ0J9AxlVVVTdNneL-AWvPrQl1aWTVFKYfH5q7I2nlnnKr5DRKE6Ly9I9rx1X08RGx8bQxRO8Kyc1CSPkNfW-EipGfM5xd--F2kSiWvfcY2TgzapC9uPQZd2SB_O18xuV484MGlB5kquiUBrKyRKZCULF-uhNiUe9-aiNPJ_fV6n-G00?></g></svg>